<mxfile host="app.diagrams.net" agent="Mozilla/5.0 (Windows NT 10.0; Win64; x64) AppleWebKit/537.36 (KHTML, like Gecko) Chrome/139.0.0.0 Safari/537.36 Edg/139.0.0.0" version="28.1.1">
  <diagram name="Page-1" id="vVcJagvj4B71X-pXp1Tg">
    <mxGraphModel dx="2268" dy="756" grid="1" gridSize="10" guides="1" tooltips="1" connect="1" arrows="1" fold="1" page="1" pageScale="1" pageWidth="850" pageHeight="1100" math="0" shadow="0">
      <root>
        <mxCell id="0" />
        <mxCell id="1" parent="0" />
        <mxCell id="wxPRt9U06EiIfMw6LwDw-34" value="" style="rounded=0;whiteSpace=wrap;html=1;" vertex="1" parent="1">
          <mxGeometry x="510" y="540" width="370" height="140" as="geometry" />
        </mxCell>
        <mxCell id="wxPRt9U06EiIfMw6LwDw-16" style="edgeStyle=orthogonalEdgeStyle;rounded=0;orthogonalLoop=1;jettySize=auto;html=1;entryX=0;entryY=0.5;entryDx=0;entryDy=0;" edge="1" parent="1" source="wxPRt9U06EiIfMw6LwDw-2" target="wxPRt9U06EiIfMw6LwDw-15">
          <mxGeometry relative="1" as="geometry" />
        </mxCell>
        <mxCell id="wxPRt9U06EiIfMw6LwDw-17" value="push" style="edgeLabel;html=1;align=center;verticalAlign=middle;resizable=0;points=[];" vertex="1" connectable="0" parent="wxPRt9U06EiIfMw6LwDw-16">
          <mxGeometry x="-0.0857" relative="1" as="geometry">
            <mxPoint as="offset" />
          </mxGeometry>
        </mxCell>
        <mxCell id="wxPRt9U06EiIfMw6LwDw-2" value="" style="rounded=0;whiteSpace=wrap;html=1;spacing=6;" vertex="1" parent="1">
          <mxGeometry x="120" y="490" width="160" height="200" as="geometry" />
        </mxCell>
        <mxCell id="wxPRt9U06EiIfMw6LwDw-1" value="App Code" style="rounded=0;whiteSpace=wrap;html=1;spacing=6;" vertex="1" parent="1">
          <mxGeometry x="140" y="530" width="120" height="30" as="geometry" />
        </mxCell>
        <mxCell id="wxPRt9U06EiIfMw6LwDw-3" value="Dependencies" style="rounded=0;whiteSpace=wrap;html=1;spacing=6;" vertex="1" parent="1">
          <mxGeometry x="140" y="570" width="120" height="30" as="geometry" />
        </mxCell>
        <mxCell id="wxPRt9U06EiIfMw6LwDw-4" value="System Tools" style="rounded=0;whiteSpace=wrap;html=1;spacing=6;" vertex="1" parent="1">
          <mxGeometry x="140" y="610" width="120" height="30" as="geometry" />
        </mxCell>
        <mxCell id="wxPRt9U06EiIfMw6LwDw-5" value="Base OS" style="rounded=0;whiteSpace=wrap;html=1;spacing=6;" vertex="1" parent="1">
          <mxGeometry x="140" y="650" width="120" height="30" as="geometry" />
        </mxCell>
        <mxCell id="wxPRt9U06EiIfMw6LwDw-6" value="Image" style="text;html=1;align=center;verticalAlign=middle;whiteSpace=wrap;rounded=0;" vertex="1" parent="1">
          <mxGeometry x="170" y="500" width="60" height="20" as="geometry" />
        </mxCell>
        <mxCell id="wxPRt9U06EiIfMw6LwDw-9" style="edgeStyle=orthogonalEdgeStyle;rounded=0;orthogonalLoop=1;jettySize=auto;html=1;entryX=0;entryY=0.5;entryDx=0;entryDy=0;" edge="1" parent="1" source="wxPRt9U06EiIfMw6LwDw-12" target="wxPRt9U06EiIfMw6LwDw-2">
          <mxGeometry relative="1" as="geometry">
            <mxPoint x="80" y="590" as="sourcePoint" />
          </mxGeometry>
        </mxCell>
        <mxCell id="wxPRt9U06EiIfMw6LwDw-13" value="build" style="edgeLabel;html=1;align=center;verticalAlign=middle;resizable=0;points=[];" vertex="1" connectable="0" parent="wxPRt9U06EiIfMw6LwDw-9">
          <mxGeometry x="0.0694" y="-1" relative="1" as="geometry">
            <mxPoint x="-8" y="-1" as="offset" />
          </mxGeometry>
        </mxCell>
        <mxCell id="wxPRt9U06EiIfMw6LwDw-11" style="edgeStyle=orthogonalEdgeStyle;rounded=0;orthogonalLoop=1;jettySize=auto;html=1;entryX=0.5;entryY=0;entryDx=0;entryDy=0;" edge="1" parent="1" source="wxPRt9U06EiIfMw6LwDw-10" target="wxPRt9U06EiIfMw6LwDw-12">
          <mxGeometry relative="1" as="geometry">
            <mxPoint x="35" y="575" as="targetPoint" />
          </mxGeometry>
        </mxCell>
        <mxCell id="wxPRt9U06EiIfMw6LwDw-10" value="Dockerfile" style="rounded=0;whiteSpace=wrap;html=1;" vertex="1" parent="1">
          <mxGeometry x="-30" y="520" width="90" height="30" as="geometry" />
        </mxCell>
        <mxCell id="wxPRt9U06EiIfMw6LwDw-12" value="Docker" style="rounded=1;whiteSpace=wrap;html=1;" vertex="1" parent="1">
          <mxGeometry x="-20" y="575" width="70" height="30" as="geometry" />
        </mxCell>
        <mxCell id="wxPRt9U06EiIfMw6LwDw-21" style="edgeStyle=orthogonalEdgeStyle;rounded=0;orthogonalLoop=1;jettySize=auto;html=1;entryX=0;entryY=0.5;entryDx=0;entryDy=0;" edge="1" parent="1" source="wxPRt9U06EiIfMw6LwDw-15" target="wxPRt9U06EiIfMw6LwDw-20">
          <mxGeometry relative="1" as="geometry" />
        </mxCell>
        <mxCell id="wxPRt9U06EiIfMw6LwDw-22" value="pull&lt;div&gt;run&lt;/div&gt;" style="edgeLabel;html=1;align=center;verticalAlign=middle;resizable=0;points=[];" vertex="1" connectable="0" parent="wxPRt9U06EiIfMw6LwDw-21">
          <mxGeometry x="-0.1071" y="-1" relative="1" as="geometry">
            <mxPoint as="offset" />
          </mxGeometry>
        </mxCell>
        <mxCell id="wxPRt9U06EiIfMw6LwDw-15" value="Registry" style="rounded=1;whiteSpace=wrap;html=1;" vertex="1" parent="1">
          <mxGeometry x="370" y="575" width="80" height="30" as="geometry" />
        </mxCell>
        <mxCell id="wxPRt9U06EiIfMw6LwDw-25" style="edgeStyle=orthogonalEdgeStyle;rounded=0;orthogonalLoop=1;jettySize=auto;html=1;entryX=0.5;entryY=1;entryDx=0;entryDy=0;" edge="1" parent="1" source="wxPRt9U06EiIfMw6LwDw-20" target="wxPRt9U06EiIfMw6LwDw-24">
          <mxGeometry relative="1" as="geometry" />
        </mxCell>
        <mxCell id="wxPRt9U06EiIfMw6LwDw-30" style="edgeStyle=orthogonalEdgeStyle;rounded=0;orthogonalLoop=1;jettySize=auto;html=1;startArrow=classic;startFill=1;entryX=0;entryY=0.5;entryDx=0;entryDy=0;" edge="1" parent="1" source="wxPRt9U06EiIfMw6LwDw-20" target="wxPRt9U06EiIfMw6LwDw-29">
          <mxGeometry relative="1" as="geometry">
            <mxPoint x="680" y="590" as="targetPoint" />
          </mxGeometry>
        </mxCell>
        <mxCell id="wxPRt9U06EiIfMw6LwDw-33" value="Container Networking&lt;div&gt;Port Mapping&lt;/div&gt;" style="edgeLabel;html=1;align=center;verticalAlign=middle;resizable=0;points=[];" vertex="1" connectable="0" parent="wxPRt9U06EiIfMw6LwDw-30">
          <mxGeometry x="-0.0118" relative="1" as="geometry">
            <mxPoint as="offset" />
          </mxGeometry>
        </mxCell>
        <mxCell id="wxPRt9U06EiIfMw6LwDw-20" value="Container" style="rounded=0;whiteSpace=wrap;html=1;spacing=6;" vertex="1" parent="1">
          <mxGeometry x="530" y="562.5" width="80" height="55" as="geometry" />
        </mxCell>
        <mxCell id="wxPRt9U06EiIfMw6LwDw-24" value="Docker Volumes" style="rounded=0;whiteSpace=wrap;html=1;spacing=6;" vertex="1" parent="1">
          <mxGeometry x="530" y="465" width="80" height="55" as="geometry" />
        </mxCell>
        <mxCell id="wxPRt9U06EiIfMw6LwDw-29" value="Other Containers" style="rounded=0;whiteSpace=wrap;html=1;spacing=6;" vertex="1" parent="1">
          <mxGeometry x="790" y="562.5" width="80" height="55" as="geometry" />
        </mxCell>
        <mxCell id="wxPRt9U06EiIfMw6LwDw-35" value="Kubernetes" style="text;html=1;align=center;verticalAlign=middle;whiteSpace=wrap;rounded=0;" vertex="1" parent="1">
          <mxGeometry x="520" y="655" width="60" height="20" as="geometry" />
        </mxCell>
      </root>
    </mxGraphModel>
  </diagram>
</mxfile>
